<svg xmlns="http://www.w3.org/2000/svg" viewBox="0 0 1600 900">
  <defs>
    <linearGradient id="g" x1="0" x2="1">
      <stop offset="0%" stop-color="#071120"/>
      <stop offset="55%" stop-color="#091934"/>
      <stop offset="100%" stop-color="#0f2d53"/>
    </linearGradient>
    <radialGradient id="glow1" cx="0.15" cy="0.2" r="0.45">
      <stop offset="0%" stop-color="#1dd3ff" stop-opacity="0.4"/>
      <stop offset="100%" stop-color="#1dd3ff" stop-opacity="0"/>
    </radialGradient>
    <radialGradient id="glow2" cx="0.85" cy="0.8" r="0.5">
      <stop offset="0%" stop-color="#7c5cff" stop-opacity="0.28"/>
      <stop offset="100%" stop-color="#7c5cff" stop-opacity="0"/>
    </radialGradient>
  </defs>
  <rect width="1600" height="900" fill="url(#g)"/>
  <rect width="1600" height="900" fill="url(#glow1)"/>
  <rect width="1600" height="900" fill="url(#glow2)"/>
  <g opacity="0.12" stroke="#6de1ff" fill="none">
    <path d="M50 650 C 250 480, 420 780, 620 600 S 970 430, 1200 570 1430 780, 1550 620" stroke-width="4"/>
    <path d="M80 740 C 290 560, 470 850, 700 680 S 1040 510, 1310 660" stroke-width="2"/>
    <circle cx="220" cy="210" r="120"/>
    <circle cx="1320" cy="180" r="90"/>
    <circle cx="1080" cy="700" r="130"/>
  </g>
  <g opacity="0.18" fill="#9feeff">
    <rect x="95" y="250" width="110" height="18" rx="9"/>
    <rect x="95" y="300" width="160" height="18" rx="9"/>
    <rect x="95" y="350" width="130" height="18" rx="9"/>
    <rect x="1300" y="190" width="160" height="20" rx="10"/>
    <rect x="1245" y="110" width="70" height="20" rx="10"/>
  </g>
  <g transform="translate(1010 420)" opacity="0.9">
    <rect x="-40" y="180" width="360" height="40" rx="12" fill="#0b1730"/>
    <rect x="10" y="30" width="250" height="150" rx="18" fill="#102347" stroke="#2dcfff" stroke-opacity="0.25"/>
    <rect x="20" y="50" width="60" height="80" rx="8" fill="#153763"/>
    <rect x="95" y="50" width="60" height="80" rx="8" fill="#153763"/>
    <rect x="170" y="50" width="60" height="80" rx="8" fill="#153763"/>
    <rect x="-10" y="140" width="300" height="30" rx="8" fill="#173564"/>
    <circle cx="70" cy="195" r="24" fill="#0f223f" stroke="#6de1ff" stroke-opacity="0.4"/>
    <circle cx="240" cy="195" r="24" fill="#0f223f" stroke="#6de1ff" stroke-opacity="0.4"/>
    <rect x="-110" y="95" width="110" height="75" rx="16" fill="#12284f" stroke="#2dcfff" stroke-opacity="0.25"/>
    <rect x="-150" y="120" width="60" height="50" rx="10" fill="#173564"/>
    <circle cx="-90" cy="195" r="21" fill="#0f223f" stroke="#6de1ff" stroke-opacity="0.4"/>
    <circle cx="-15" cy="195" r="21" fill="#0f223f" stroke="#6de1ff" stroke-opacity="0.4"/>
  </g>
  <g transform="translate(250 430)" opacity="0.7">
    <rect x="0" y="160" width="420" height="36" rx="14" fill="#081425"/>
    <rect x="50" y="0" width="110" height="160" rx="18" fill="#102347" stroke="#2dcfff" stroke-opacity="0.2"/>
    <rect x="175" y="40" width="100" height="120" rx="18" fill="#102347" stroke="#2dcfff" stroke-opacity="0.2"/>
    <rect x="290" y="20" width="80" height="140" rx="18" fill="#102347" stroke="#2dcfff" stroke-opacity="0.2"/>
    <rect x="70" y="20" width="24" height="18" rx="6" fill="#1dd3ff" opacity="0.6"/>
    <rect x="196" y="60" width="24" height="18" rx="6" fill="#7c5cff" opacity="0.6"/>
    <rect x="315" y="45" width="24" height="18" rx="6" fill="#1dd3ff" opacity="0.6"/>
  </g>
</svg>
